<svg width="121" height="17" viewBox="0 0 121 17" fill="none" xmlns="http://www.w3.org/2000/svg">
<g opacity="0.5">
<path d="M1.13278 6.5532H14.5276" stroke="#200E32" stroke-linecap="round" stroke-linejoin="round"/>
<path d="M11.1651 9.48228H11.1721" stroke="#200E32" stroke-linecap="round" stroke-linejoin="round"/>
<path d="M7.83034 9.48228H7.8373" stroke="#200E32" stroke-linecap="round" stroke-linejoin="round"/>
<path d="M4.4886 9.48228H4.49556" stroke="#200E32" stroke-linecap="round" stroke-linejoin="round"/>
<path d="M11.1651 12.3972H11.1721" stroke="#200E32" stroke-linecap="round" stroke-linejoin="round"/>
<path d="M7.83034 12.3972H7.8373" stroke="#200E32" stroke-linecap="round" stroke-linejoin="round"/>
<path d="M4.4886 12.3972H4.49556" stroke="#200E32" stroke-linecap="round" stroke-linejoin="round"/>
<path d="M10.8658 1V3.46809" stroke="#200E32" stroke-linecap="round" stroke-linejoin="round"/>
<path d="M4.79494 1V3.46809" stroke="#200E32" stroke-linecap="round" stroke-linejoin="round"/>
<path fill-rule="evenodd" clip-rule="evenodd" d="M11.012 2.1844H4.64871C2.44176 2.1844 1.06329 3.41135 1.06329 5.66667V12.4539C1.06329 14.7447 2.44176 16 4.64871 16H11.005C13.2189 16 14.5904 14.766 14.5904 12.5106V5.66667C14.5974 3.41135 13.2259 2.1844 11.012 2.1844Z" stroke="#200E32" stroke-linecap="round" stroke-linejoin="round"/>
</g>
<path opacity="0.5" d="M29.4675 12.232V13H23.5755V12.388L27.0675 8.968C27.5075 8.536 27.8035 8.164 27.9555 7.852C28.1155 7.532 28.1955 7.212 28.1955 6.892C28.1955 6.396 28.0235 6.012 27.6795 5.74C27.3435 5.46 26.8595 5.32 26.2275 5.32C25.2435 5.32 24.4795 5.632 23.9355 6.256L23.3235 5.728C23.6515 5.344 24.0675 5.048 24.5715 4.84C25.0835 4.632 25.6595 4.528 26.2995 4.528C27.1555 4.528 27.8315 4.732 28.3275 5.14C28.8315 5.54 29.0835 6.092 29.0835 6.796C29.0835 7.228 28.9875 7.644 28.7955 8.044C28.6035 8.444 28.2395 8.904 27.7035 9.424L24.8475 12.232H29.4675ZM33.853 13.072C33.205 13.072 32.625 12.9 32.113 12.556C31.609 12.212 31.213 11.72 30.925 11.08C30.645 10.432 30.505 9.672 30.505 8.8C30.505 7.928 30.645 7.172 30.925 6.532C31.213 5.884 31.609 5.388 32.113 5.044C32.625 4.7 33.205 4.528 33.853 4.528C34.501 4.528 35.077 4.7 35.581 5.044C36.093 5.388 36.493 5.884 36.781 6.532C37.069 7.172 37.213 7.928 37.213 8.8C37.213 9.672 37.069 10.432 36.781 11.08C36.493 11.72 36.093 12.212 35.581 12.556C35.077 12.9 34.501 13.072 33.853 13.072ZM33.853 12.28C34.341 12.28 34.769 12.144 35.137 11.872C35.513 11.6 35.805 11.204 36.013 10.684C36.221 10.164 36.325 9.536 36.325 8.8C36.325 8.064 36.221 7.436 36.013 6.916C35.805 6.396 35.513 6 35.137 5.728C34.769 5.456 34.341 5.32 33.853 5.32C33.365 5.32 32.933 5.456 32.557 5.728C32.189 6 31.901 6.396 31.693 6.916C31.485 7.436 31.381 8.064 31.381 8.8C31.381 9.536 31.485 10.164 31.693 10.684C31.901 11.204 32.189 11.6 32.557 11.872C32.933 12.144 33.365 12.28 33.853 12.28ZM39.0983 7.948C38.9223 7.948 38.7703 7.884 38.6423 7.756C38.5223 7.628 38.4623 7.472 38.4623 7.288C38.4623 7.104 38.5223 6.952 38.6423 6.832C38.7703 6.704 38.9223 6.64 39.0983 6.64C39.2743 6.64 39.4263 6.704 39.5543 6.832C39.6823 6.952 39.7463 7.104 39.7463 7.288C39.7463 7.472 39.6823 7.628 39.5543 7.756C39.4263 7.884 39.2743 7.948 39.0983 7.948ZM39.0983 13.06C38.9223 13.06 38.7703 12.996 38.6423 12.868C38.5223 12.74 38.4623 12.584 38.4623 12.4C38.4623 12.216 38.5223 12.064 38.6423 11.944C38.7703 11.816 38.9223 11.752 39.0983 11.752C39.2743 11.752 39.4263 11.816 39.5543 11.944C39.6823 12.064 39.7463 12.216 39.7463 12.4C39.7463 12.584 39.6823 12.74 39.5543 12.868C39.4263 12.996 39.2743 13.06 39.0983 13.06ZM48.1333 10.792H46.4533V13H45.5893V10.792H40.8493V10.168L45.3013 4.6H46.2613L41.9653 10.024H45.6133V8.08H46.4533V10.024H48.1333V10.792ZM50.9502 4.6V13H50.0862V5.368H48.1062V4.6H50.9502ZM59.1347 2.896H59.9147L55.9547 14.2H55.1747L59.1347 2.896ZM65.5869 4.6V13H64.7229V5.368H62.7429V4.6H65.5869ZM69.8028 8.044C71.0188 8.044 71.9028 8.264 72.4548 8.704C73.0148 9.136 73.2948 9.744 73.2948 10.528C73.2948 11.016 73.1788 11.452 72.9468 11.836C72.7228 12.22 72.3828 12.524 71.9268 12.748C71.4708 12.964 70.9108 13.072 70.2468 13.072C69.6468 13.072 69.0748 12.976 68.5308 12.784C67.9948 12.584 67.5628 12.32 67.2348 11.992L67.6548 11.308C67.9348 11.596 68.3028 11.832 68.7588 12.016C69.2148 12.192 69.7068 12.28 70.2348 12.28C70.9308 12.28 71.4668 12.124 71.8428 11.812C72.2268 11.5 72.4188 11.084 72.4188 10.564C72.4188 9.988 72.2028 9.552 71.7708 9.256C71.3468 8.96 70.6268 8.812 69.6108 8.812H67.8228L68.2548 4.6H72.8508V5.368H69.0108L68.7228 8.044H69.8028ZM75.0397 13.06C74.8637 13.06 74.7117 12.996 74.5837 12.868C74.4637 12.74 74.4037 12.584 74.4037 12.4C74.4037 12.216 74.4637 12.064 74.5837 11.944C74.7117 11.816 74.8637 11.752 75.0397 11.752C75.2157 11.752 75.3677 11.816 75.4957 11.944C75.6237 12.064 75.6877 12.216 75.6877 12.4C75.6877 12.584 75.6237 12.74 75.4957 12.868C75.3677 12.996 75.2157 13.06 75.0397 13.06ZM80.1538 13.072C79.5058 13.072 78.9258 12.9 78.4138 12.556C77.9098 12.212 77.5138 11.72 77.2258 11.08C76.9458 10.432 76.8058 9.672 76.8058 8.8C76.8058 7.928 76.9458 7.172 77.2258 6.532C77.5138 5.884 77.9098 5.388 78.4138 5.044C78.9258 4.7 79.5058 4.528 80.1538 4.528C80.8018 4.528 81.3778 4.7 81.8818 5.044C82.3938 5.388 82.7938 5.884 83.0818 6.532C83.3698 7.172 83.5138 7.928 83.5138 8.8C83.5138 9.672 83.3698 10.432 83.0818 11.08C82.7938 11.72 82.3938 12.212 81.8818 12.556C81.3778 12.9 80.8018 13.072 80.1538 13.072ZM80.1538 12.28C80.6418 12.28 81.0698 12.144 81.4378 11.872C81.8138 11.6 82.1058 11.204 82.3138 10.684C82.5218 10.164 82.6258 9.536 82.6258 8.8C82.6258 8.064 82.5218 7.436 82.3138 6.916C82.1058 6.396 81.8138 6 81.4378 5.728C81.0698 5.456 80.6418 5.32 80.1538 5.32C79.6658 5.32 79.2338 5.456 78.8578 5.728C78.4898 6 78.2018 6.396 77.9938 6.916C77.7858 7.436 77.6818 8.064 77.6818 8.8C77.6818 9.536 77.7858 10.164 77.9938 10.684C78.2018 11.204 78.4898 11.6 78.8578 11.872C79.2338 12.144 79.6658 12.28 80.1538 12.28ZM87.4899 8.2C88.3699 8.248 89.0379 8.488 89.4939 8.92C89.9579 9.344 90.1899 9.9 90.1899 10.588C90.1899 11.068 90.0739 11.496 89.8419 11.872C89.6099 12.24 89.2659 12.532 88.8099 12.748C88.3539 12.964 87.7979 13.072 87.1419 13.072C86.5339 13.072 85.9579 12.976 85.4139 12.784C84.8779 12.584 84.4459 12.32 84.1179 11.992L84.5379 11.308C84.8179 11.596 85.1899 11.832 85.6539 12.016C86.1179 12.192 86.6139 12.28 87.1419 12.28C87.8299 12.28 88.3619 12.132 88.7379 11.836C89.1139 11.532 89.3019 11.116 89.3019 10.588C89.3019 10.068 89.1139 9.66 88.7379 9.364C88.3619 9.068 87.7939 8.92 87.0339 8.92H86.4339V8.284L88.7619 5.368H84.4659V4.6H89.8659V5.212L87.4899 8.2ZM92.0553 13.06C91.8793 13.06 91.7273 12.996 91.5993 12.868C91.4793 12.74 91.4193 12.584 91.4193 12.4C91.4193 12.216 91.4793 12.064 91.5993 11.944C91.7273 11.816 91.8793 11.752 92.0553 11.752C92.2313 11.752 92.3833 11.816 92.5113 11.944C92.6393 12.064 92.7033 12.216 92.7033 12.4C92.7033 12.584 92.6393 12.74 92.5113 12.868C92.3833 12.996 92.2313 13.06 92.0553 13.06ZM99.8035 12.232V13H93.9115V12.388L97.4035 8.968C97.8435 8.536 98.1395 8.164 98.2915 7.852C98.4515 7.532 98.5315 7.212 98.5315 6.892C98.5315 6.396 98.3595 6.012 98.0155 5.74C97.6795 5.46 97.1955 5.32 96.5635 5.32C95.5795 5.32 94.8155 5.632 94.2715 6.256L93.6595 5.728C93.9875 5.344 94.4035 5.048 94.9075 4.84C95.4195 4.632 95.9955 4.528 96.6355 4.528C97.4915 4.528 98.1675 4.732 98.6635 5.14C99.1675 5.54 99.4195 6.092 99.4195 6.796C99.4195 7.228 99.3235 7.644 99.1315 8.044C98.9395 8.444 98.5755 8.904 98.0395 9.424L95.1835 12.232H99.8035ZM104.189 13.072C103.541 13.072 102.961 12.9 102.449 12.556C101.945 12.212 101.549 11.72 101.261 11.08C100.981 10.432 100.841 9.672 100.841 8.8C100.841 7.928 100.981 7.172 101.261 6.532C101.549 5.884 101.945 5.388 102.449 5.044C102.961 4.7 103.541 4.528 104.189 4.528C104.837 4.528 105.413 4.7 105.917 5.044C106.429 5.388 106.829 5.884 107.117 6.532C107.405 7.172 107.549 7.928 107.549 8.8C107.549 9.672 107.405 10.432 107.117 11.08C106.829 11.72 106.429 12.212 105.917 12.556C105.413 12.9 104.837 13.072 104.189 13.072ZM104.189 12.28C104.677 12.28 105.105 12.144 105.473 11.872C105.849 11.6 106.141 11.204 106.349 10.684C106.557 10.164 106.661 9.536 106.661 8.8C106.661 8.064 106.557 7.436 106.349 6.916C106.141 6.396 105.849 6 105.473 5.728C105.105 5.456 104.677 5.32 104.189 5.32C103.701 5.32 103.269 5.456 102.893 5.728C102.525 6 102.237 6.396 102.029 6.916C101.821 7.436 101.717 8.064 101.717 8.8C101.717 9.536 101.821 10.164 102.029 10.684C102.237 11.204 102.525 11.6 102.893 11.872C103.269 12.144 103.701 12.28 104.189 12.28ZM114.499 12.232V13H108.607V12.388L112.099 8.968C112.539 8.536 112.835 8.164 112.987 7.852C113.147 7.532 113.227 7.212 113.227 6.892C113.227 6.396 113.055 6.012 112.711 5.74C112.375 5.46 111.891 5.32 111.259 5.32C110.275 5.32 109.511 5.632 108.967 6.256L108.355 5.728C108.683 5.344 109.099 5.048 109.603 4.84C110.115 4.632 110.691 4.528 111.331 4.528C112.187 4.528 112.863 4.732 113.359 5.14C113.863 5.54 114.115 6.092 114.115 6.796C114.115 7.228 114.019 7.644 113.827 8.044C113.635 8.444 113.271 8.904 112.735 9.424L109.879 12.232H114.499ZM117.911 4.6V13H117.047V5.368H115.067V4.6H117.911Z" fill="black"/>
</svg>
