<svg width="104" height="32" viewBox="0 0 104 32" fill="none" xmlns="http://www.w3.org/2000/svg">
<rect width="104" height="32" fill="#0C2F75"/>
<path d="M21.052 20.096C20.412 20.096 19.816 19.988 19.264 19.772C18.72 19.556 18.248 19.256 17.848 18.872C17.448 18.48 17.136 18.024 16.912 17.504C16.688 16.984 16.576 16.416 16.576 15.8C16.576 15.184 16.688 14.616 16.912 14.096C17.136 13.576 17.448 13.124 17.848 12.74C18.248 12.348 18.72 12.044 19.264 11.828C19.808 11.612 20.404 11.504 21.052 11.504C21.692 11.504 22.28 11.612 22.816 11.828C23.36 12.036 23.832 12.336 24.232 12.728C24.64 13.112 24.952 13.564 25.168 14.084C25.392 14.604 25.504 15.176 25.504 15.8C25.504 16.424 25.392 16.996 25.168 17.516C24.952 18.036 24.64 18.492 24.232 18.884C23.832 19.268 23.36 19.568 22.816 19.784C22.28 19.992 21.692 20.096 21.052 20.096ZM21.052 19.028C21.516 19.028 21.944 18.948 22.336 18.788C22.736 18.628 23.08 18.404 23.368 18.116C23.664 17.82 23.892 17.476 24.052 17.084C24.22 16.692 24.304 16.264 24.304 15.8C24.304 15.336 24.22 14.908 24.052 14.516C23.892 14.124 23.664 13.784 23.368 13.496C23.08 13.2 22.736 12.972 22.336 12.812C21.944 12.652 21.516 12.572 21.052 12.572C20.58 12.572 20.144 12.652 19.744 12.812C19.352 12.972 19.008 13.2 18.712 13.496C18.416 13.784 18.184 14.124 18.016 14.516C17.856 14.908 17.776 15.336 17.776 15.8C17.776 16.264 17.856 16.692 18.016 17.084C18.184 17.476 18.416 17.82 18.712 18.116C19.008 18.404 19.352 18.628 19.744 18.788C20.144 18.948 20.58 19.028 21.052 19.028ZM26.5383 14.372L27.1383 11.936L27.2943 12.632C27.0623 12.632 26.8663 12.56 26.7063 12.416C26.5543 12.272 26.4783 12.08 26.4783 11.84C26.4783 11.592 26.5543 11.396 26.7063 11.252C26.8663 11.1 27.0583 11.024 27.2823 11.024C27.5143 11.024 27.7023 11.104 27.8463 11.264C27.9903 11.416 28.0623 11.608 28.0623 11.84C28.0623 11.912 28.0583 11.988 28.0503 12.068C28.0423 12.14 28.0223 12.224 27.9903 12.32C27.9663 12.416 27.9263 12.54 27.8703 12.692L27.2943 14.372H26.5383ZM29.1011 20V19.256L33.1811 14.192L33.4091 14.588H29.1731V13.64H34.3331V14.396L30.2531 19.448L29.9891 19.052H34.4291V20H29.1011ZM39.3429 20.072C38.7989 20.072 38.3069 19.952 37.8669 19.712C37.4349 19.464 37.0909 19.1 36.8349 18.62C36.5869 18.14 36.4629 17.54 36.4629 16.82C36.4629 16.1 36.5909 15.5 36.8469 15.02C37.1109 14.54 37.4589 14.18 37.8909 13.94C38.3309 13.7 38.8149 13.58 39.3429 13.58C39.9669 13.58 40.5189 13.716 40.9989 13.988C41.4789 14.26 41.8589 14.64 42.1389 15.128C42.4189 15.608 42.5589 16.172 42.5589 16.82C42.5589 17.468 42.4189 18.036 42.1389 18.524C41.8589 19.012 41.4789 19.392 40.9989 19.664C40.5189 19.936 39.9669 20.072 39.3429 20.072ZM35.9709 20V11.096H37.1229V15.332L37.0029 16.808L37.0749 18.284V20H35.9709ZM39.2469 19.064C39.6549 19.064 40.0189 18.972 40.3389 18.788C40.6669 18.604 40.9229 18.344 41.1069 18.008C41.2989 17.664 41.3949 17.268 41.3949 16.82C41.3949 16.364 41.2989 15.972 41.1069 15.644C40.9229 15.308 40.6669 15.048 40.3389 14.864C40.0189 14.68 39.6549 14.588 39.2469 14.588C38.8469 14.588 38.4829 14.68 38.1549 14.864C37.8349 15.048 37.5789 15.308 37.3869 15.644C37.2029 15.972 37.1109 16.364 37.1109 16.82C37.1109 17.268 37.2029 17.664 37.3869 18.008C37.5789 18.344 37.8349 18.604 38.1549 18.788C38.4829 18.972 38.8469 19.064 39.2469 19.064ZM46.9826 20.072C46.3026 20.072 45.7026 19.932 45.1826 19.652C44.6706 19.372 44.2706 18.988 43.9826 18.5C43.7026 18.012 43.5626 17.452 43.5626 16.82C43.5626 16.188 43.6986 15.628 43.9706 15.14C44.2506 14.652 44.6306 14.272 45.1106 14C45.5986 13.72 46.1466 13.58 46.7546 13.58C47.3706 13.58 47.9146 13.716 48.3866 13.988C48.8586 14.26 49.2266 14.644 49.4906 15.14C49.7626 15.628 49.8986 16.2 49.8986 16.856C49.8986 16.904 49.8946 16.96 49.8866 17.024C49.8866 17.088 49.8826 17.148 49.8746 17.204H44.4626V16.376H49.2746L48.8066 16.664C48.8146 16.256 48.7306 15.892 48.5546 15.572C48.3786 15.252 48.1346 15.004 47.8226 14.828C47.5186 14.644 47.1626 14.552 46.7546 14.552C46.3546 14.552 45.9986 14.644 45.6866 14.828C45.3746 15.004 45.1306 15.256 44.9546 15.584C44.7786 15.904 44.6906 16.272 44.6906 16.688V16.88C44.6906 17.304 44.7866 17.684 44.9786 18.02C45.1786 18.348 45.4546 18.604 45.8066 18.788C46.1586 18.972 46.5626 19.064 47.0186 19.064C47.3946 19.064 47.7346 19 48.0386 18.872C48.3506 18.744 48.6226 18.552 48.8546 18.296L49.4906 19.04C49.2026 19.376 48.8426 19.632 48.4106 19.808C47.9866 19.984 47.5106 20.072 46.9826 20.072ZM52.4343 18.464L52.4583 16.988L56.1183 13.64H57.5103L54.7023 16.4L54.0783 16.928L52.4343 18.464ZM51.4983 20V11.096H52.6503V20H51.4983ZM56.3583 20L53.8623 16.904L54.6063 15.98L57.7743 20H56.3583ZM58.8928 20V13.64H60.0448V20H58.8928ZM59.4688 12.416C59.2448 12.416 59.0568 12.344 58.9048 12.2C58.7608 12.056 58.6888 11.88 58.6888 11.672C58.6888 11.456 58.7608 11.276 58.9048 11.132C59.0568 10.988 59.2448 10.916 59.4688 10.916C59.6928 10.916 59.8768 10.988 60.0208 11.132C60.1728 11.268 60.2488 11.44 60.2488 11.648C60.2488 11.864 60.1768 12.048 60.0328 12.2C59.8888 12.344 59.7008 12.416 59.4688 12.416ZM64.0683 20.072C63.5403 20.072 63.0363 20 62.5563 19.856C62.0843 19.712 61.7123 19.536 61.4403 19.328L61.9203 18.416C62.1923 18.6 62.5283 18.756 62.9283 18.884C63.3283 19.012 63.7363 19.076 64.1523 19.076C64.6883 19.076 65.0723 19 65.3043 18.848C65.5443 18.696 65.6643 18.484 65.6643 18.212C65.6643 18.012 65.5923 17.856 65.4483 17.744C65.3043 17.632 65.1123 17.548 64.8723 17.492C64.6403 17.436 64.3803 17.388 64.0923 17.348C63.8043 17.3 63.5163 17.244 63.2283 17.18C62.9403 17.108 62.6763 17.012 62.4363 16.892C62.1963 16.764 62.0043 16.592 61.8603 16.376C61.7163 16.152 61.6443 15.856 61.6443 15.488C61.6443 15.104 61.7523 14.768 61.9683 14.48C62.1843 14.192 62.4883 13.972 62.8803 13.82C63.2803 13.66 63.7523 13.58 64.2963 13.58C64.7123 13.58 65.1323 13.632 65.5563 13.736C65.9883 13.832 66.3403 13.972 66.6123 14.156L66.1203 15.068C65.8323 14.876 65.5323 14.744 65.2203 14.672C64.9083 14.6 64.5963 14.564 64.2843 14.564C63.7803 14.564 63.4043 14.648 63.1563 14.816C62.9083 14.976 62.7843 15.184 62.7843 15.44C62.7843 15.656 62.8563 15.824 63.0003 15.944C63.1523 16.056 63.3443 16.144 63.5763 16.208C63.8163 16.272 64.0803 16.328 64.3683 16.376C64.6563 16.416 64.9443 16.472 65.2323 16.544C65.5203 16.608 65.7803 16.7 66.0123 16.82C66.2523 16.94 66.4443 17.108 66.5883 17.324C66.7403 17.54 66.8163 17.828 66.8163 18.188C66.8163 18.572 66.7043 18.904 66.4803 19.184C66.2563 19.464 65.9403 19.684 65.5323 19.844C65.1243 19.996 64.6363 20.072 64.0683 20.072ZM70.4401 20.072C69.8001 20.072 69.3041 19.9 68.9521 19.556C68.6001 19.212 68.4241 18.72 68.4241 18.08V12.248H69.5761V18.032C69.5761 18.376 69.6601 18.64 69.8281 18.824C70.0041 19.008 70.2521 19.1 70.5721 19.1C70.9321 19.1 71.2321 19 71.4721 18.8L71.8321 19.628C71.6561 19.78 71.4441 19.892 71.1961 19.964C70.9561 20.036 70.7041 20.072 70.4401 20.072ZM67.3441 14.588V13.64H71.4001V14.588H67.3441ZM75.7379 20.072C75.0979 20.072 74.5299 19.932 74.0339 19.652C73.5379 19.372 73.1459 18.988 72.8579 18.5C72.5699 18.004 72.4259 17.444 72.4259 16.82C72.4259 16.188 72.5699 15.628 72.8579 15.14C73.1459 14.652 73.5379 14.272 74.0339 14C74.5299 13.72 75.0979 13.58 75.7379 13.58C76.3699 13.58 76.9339 13.72 77.4299 14C77.9339 14.272 78.3259 14.652 78.6059 15.14C78.8939 15.62 79.0379 16.18 79.0379 16.82C79.0379 17.452 78.8939 18.012 78.6059 18.5C78.3259 18.988 77.9339 19.372 77.4299 19.652C76.9339 19.932 76.3699 20.072 75.7379 20.072ZM75.7379 19.064C76.1459 19.064 76.5099 18.972 76.8299 18.788C77.1579 18.604 77.4139 18.344 77.5979 18.008C77.7819 17.664 77.8739 17.268 77.8739 16.82C77.8739 16.364 77.7819 15.972 77.5979 15.644C77.4139 15.308 77.1579 15.048 76.8299 14.864C76.5099 14.68 76.1459 14.588 75.7379 14.588C75.3299 14.588 74.9659 14.68 74.6459 14.864C74.3259 15.048 74.0699 15.308 73.8779 15.644C73.6859 15.972 73.5899 16.364 73.5899 16.82C73.5899 17.268 73.6859 17.664 73.8779 18.008C74.0699 18.344 74.3259 18.604 74.6459 18.788C74.9659 18.972 75.3299 19.064 75.7379 19.064ZM84.0271 13.58C84.5471 13.58 85.0031 13.68 85.3951 13.88C85.7951 14.08 86.1071 14.384 86.3311 14.792C86.5551 15.2 86.6671 15.716 86.6671 16.34V20H85.5151V16.472C85.5151 15.856 85.3631 15.392 85.0591 15.08C84.7631 14.768 84.3431 14.612 83.7991 14.612C83.3911 14.612 83.0351 14.692 82.7311 14.852C82.4271 15.012 82.1911 15.248 82.0231 15.56C81.8631 15.872 81.7831 16.26 81.7831 16.724V20H80.6311V13.64H81.7351V15.356L81.5551 14.9C81.7631 14.484 82.0831 14.16 82.5151 13.928C82.9471 13.696 83.4511 13.58 84.0271 13.58Z" fill="white"/>
</svg>
