<svg width="120" height="17" viewBox="0 0 120 17" fill="none" xmlns="http://www.w3.org/2000/svg">
<g opacity="0.5">
<path d="M1.06952 6.55322H14.4375" stroke="#200E32" stroke-linecap="round" stroke-linejoin="round"/>
<path d="M11.0816 9.4823H11.0885" stroke="#200E32" stroke-linecap="round" stroke-linejoin="round"/>
<path d="M7.75347 9.4823H7.76042" stroke="#200E32" stroke-linecap="round" stroke-linejoin="round"/>
<path d="M4.41839 9.4823H4.42534" stroke="#200E32" stroke-linecap="round" stroke-linejoin="round"/>
<path d="M11.0816 12.3972H11.0885" stroke="#200E32" stroke-linecap="round" stroke-linejoin="round"/>
<path d="M7.75347 12.3972H7.76042" stroke="#200E32" stroke-linecap="round" stroke-linejoin="round"/>
<path d="M4.41839 12.3972H4.42534" stroke="#200E32" stroke-linecap="round" stroke-linejoin="round"/>
<path d="M10.7828 1V3.46809" stroke="#200E32" stroke-linecap="round" stroke-linejoin="round"/>
<path d="M4.72417 1V3.46809" stroke="#200E32" stroke-linecap="round" stroke-linejoin="round"/>
<path fill-rule="evenodd" clip-rule="evenodd" d="M10.9287 2.18445H4.57822C2.37571 2.18445 1 3.4114 1 5.66672V12.454C1 14.7447 2.37571 16.0001 4.57822 16.0001H10.9218C13.1312 16.0001 14.5 14.766 14.5 12.5107V5.66672C14.5069 3.4114 13.1382 2.18445 10.9287 2.18445Z" stroke="#200E32" stroke-linecap="round" stroke-linejoin="round"/>
</g>
<path opacity="0.5" d="M23.468 13V12.388L26.96 8.968C27.28 8.656 27.52 8.384 27.68 8.152C27.84 7.912 27.948 7.688 28.004 7.48C28.06 7.272 28.088 7.076 28.088 6.892C28.088 6.404 27.92 6.02 27.584 5.74C27.256 5.46 26.768 5.32 26.12 5.32C25.624 5.32 25.184 5.396 24.8 5.548C24.424 5.7 24.1 5.936 23.828 6.256L23.216 5.728C23.544 5.344 23.964 5.048 24.476 4.84C24.988 4.632 25.56 4.528 26.192 4.528C26.76 4.528 27.252 4.62 27.668 4.804C28.084 4.98 28.404 5.24 28.628 5.584C28.86 5.928 28.976 6.332 28.976 6.796C28.976 7.068 28.936 7.336 28.856 7.6C28.784 7.864 28.648 8.144 28.448 8.44C28.256 8.728 27.972 9.056 27.596 9.424L24.392 12.568L24.152 12.232H29.36V13H23.468ZM33.7689 13.072C33.1209 13.072 32.5449 12.904 32.0409 12.568C31.5369 12.224 31.1409 11.736 30.8529 11.104C30.5649 10.464 30.4209 9.696 30.4209 8.8C30.4209 7.904 30.5649 7.14 30.8529 6.508C31.1409 5.868 31.5369 5.38 32.0409 5.044C32.5449 4.7 33.1209 4.528 33.7689 4.528C34.4169 4.528 34.9929 4.7 35.4969 5.044C36.0009 5.38 36.3969 5.868 36.6849 6.508C36.9809 7.14 37.1289 7.904 37.1289 8.8C37.1289 9.696 36.9809 10.464 36.6849 11.104C36.3969 11.736 36.0009 12.224 35.4969 12.568C34.9929 12.904 34.4169 13.072 33.7689 13.072ZM33.7689 12.28C34.2649 12.28 34.6969 12.148 35.0649 11.884C35.4329 11.612 35.7209 11.22 35.9289 10.708C36.1369 10.188 36.2409 9.552 36.2409 8.8C36.2409 8.048 36.1369 7.416 35.9289 6.904C35.7209 6.384 35.4329 5.992 35.0649 5.728C34.6969 5.456 34.2649 5.32 33.7689 5.32C33.2889 5.32 32.8609 5.456 32.4849 5.728C32.1089 5.992 31.8169 6.384 31.6089 6.904C31.4009 7.416 31.2969 8.048 31.2969 8.8C31.2969 9.552 31.4009 10.188 31.6089 10.708C31.8169 11.22 32.1089 11.612 32.4849 11.884C32.8609 12.148 33.2889 12.28 33.7689 12.28ZM39.0142 7.948C38.8382 7.948 38.6862 7.884 38.5582 7.756C38.4382 7.628 38.3782 7.472 38.3782 7.288C38.3782 7.096 38.4382 6.94 38.5582 6.82C38.6862 6.7 38.8382 6.64 39.0142 6.64C39.1902 6.64 39.3382 6.7 39.4582 6.82C39.5862 6.94 39.6502 7.096 39.6502 7.288C39.6502 7.472 39.5862 7.628 39.4582 7.756C39.3382 7.884 39.1902 7.948 39.0142 7.948ZM39.0142 13.06C38.8382 13.06 38.6862 12.996 38.5582 12.868C38.4382 12.74 38.3782 12.584 38.3782 12.4C38.3782 12.208 38.4382 12.052 38.5582 11.932C38.6862 11.812 38.8382 11.752 39.0142 11.752C39.1902 11.752 39.3382 11.812 39.4582 11.932C39.5862 12.052 39.6502 12.208 39.6502 12.4C39.6502 12.584 39.5862 12.74 39.4582 12.868C39.3382 12.996 39.1902 13.06 39.0142 13.06ZM40.7652 10.792V10.168L45.2172 4.6H46.1772L41.7612 10.168L41.2932 10.024H48.0492V10.792H40.7652ZM45.5052 13V10.792L45.5292 10.024V8.08H46.3692V13H45.5052ZM50.0021 13V4.96L50.3861 5.368H48.0221V4.6H50.8661V13H50.0021ZM55.0906 14.2L59.0506 2.896H59.8306L55.8706 14.2H55.0906ZM64.6388 13V4.96L65.0228 5.368H62.6588V4.6H65.5028V13H64.6388ZM70.1627 13.072C69.5627 13.072 68.9907 12.976 68.4467 12.784C67.9027 12.584 67.4707 12.32 67.1507 11.992L67.5707 11.308C67.8347 11.588 68.1947 11.82 68.6507 12.004C69.1147 12.188 69.6147 12.28 70.1507 12.28C70.8627 12.28 71.4027 12.124 71.7707 11.812C72.1467 11.492 72.3347 11.076 72.3347 10.564C72.3347 10.204 72.2467 9.896 72.0707 9.64C71.9027 9.376 71.6147 9.172 71.2067 9.028C70.7987 8.884 70.2387 8.812 69.5267 8.812H67.7387L68.1707 4.6H72.7667V5.368H68.5187L68.9627 4.948L68.5907 8.476L68.1467 8.044H69.7187C70.5667 8.044 71.2467 8.148 71.7587 8.356C72.2707 8.564 72.6387 8.856 72.8627 9.232C73.0947 9.6 73.2107 10.032 73.2107 10.528C73.2107 11 73.0987 11.432 72.8747 11.824C72.6507 12.208 72.3147 12.512 71.8667 12.736C71.4187 12.96 70.8507 13.072 70.1627 13.072ZM74.9556 13.06C74.7796 13.06 74.6276 12.996 74.4996 12.868C74.3796 12.74 74.3196 12.584 74.3196 12.4C74.3196 12.208 74.3796 12.052 74.4996 11.932C74.6276 11.812 74.7796 11.752 74.9556 11.752C75.1316 11.752 75.2796 11.812 75.3996 11.932C75.5276 12.052 75.5916 12.208 75.5916 12.4C75.5916 12.584 75.5276 12.74 75.3996 12.868C75.2796 12.996 75.1316 13.06 74.9556 13.06ZM80.0697 13.072C79.4217 13.072 78.8457 12.904 78.3417 12.568C77.8377 12.224 77.4417 11.736 77.1537 11.104C76.8657 10.464 76.7217 9.696 76.7217 8.8C76.7217 7.904 76.8657 7.14 77.1537 6.508C77.4417 5.868 77.8377 5.38 78.3417 5.044C78.8457 4.7 79.4217 4.528 80.0697 4.528C80.7177 4.528 81.2937 4.7 81.7977 5.044C82.3017 5.38 82.6977 5.868 82.9857 6.508C83.2817 7.14 83.4297 7.904 83.4297 8.8C83.4297 9.696 83.2817 10.464 82.9857 11.104C82.6977 11.736 82.3017 12.224 81.7977 12.568C81.2937 12.904 80.7177 13.072 80.0697 13.072ZM80.0697 12.28C80.5657 12.28 80.9977 12.148 81.3657 11.884C81.7337 11.612 82.0217 11.22 82.2297 10.708C82.4377 10.188 82.5417 9.552 82.5417 8.8C82.5417 8.048 82.4377 7.416 82.2297 6.904C82.0217 6.384 81.7337 5.992 81.3657 5.728C80.9977 5.456 80.5657 5.32 80.0697 5.32C79.5897 5.32 79.1617 5.456 78.7857 5.728C78.4097 5.992 78.1177 6.384 77.9097 6.904C77.7017 7.416 77.5977 8.048 77.5977 8.8C77.5977 9.552 77.7017 10.188 77.9097 10.708C78.1177 11.22 78.4097 11.612 78.7857 11.884C79.1617 12.148 79.5897 12.28 80.0697 12.28ZM87.0578 13.072C86.4498 13.072 85.8738 12.976 85.3298 12.784C84.7938 12.584 84.3618 12.32 84.0338 11.992L84.4538 11.308C84.7258 11.588 85.0898 11.82 85.5458 12.004C86.0098 12.188 86.5138 12.28 87.0578 12.28C87.7538 12.28 88.2858 12.128 88.6538 11.824C89.0298 11.52 89.2178 11.112 89.2178 10.6C89.2178 10.088 89.0338 9.68 88.6658 9.376C88.3058 9.072 87.7338 8.92 86.9498 8.92H86.3498V8.284L88.9418 5.032L89.0618 5.368H84.3818V4.6H89.7818V5.212L87.1898 8.464L86.7698 8.188H87.0938C88.1018 8.188 88.8538 8.412 89.3498 8.86C89.8538 9.308 90.1058 9.884 90.1058 10.588C90.1058 11.06 89.9938 11.484 89.7698 11.86C89.5458 12.236 89.2058 12.532 88.7498 12.748C88.3018 12.964 87.7378 13.072 87.0578 13.072ZM91.9712 13.06C91.7952 13.06 91.6432 12.996 91.5152 12.868C91.3952 12.74 91.3352 12.584 91.3352 12.4C91.3352 12.208 91.3952 12.052 91.5152 11.932C91.6432 11.812 91.7952 11.752 91.9712 11.752C92.1472 11.752 92.2952 11.812 92.4152 11.932C92.5432 12.052 92.6072 12.208 92.6072 12.4C92.6072 12.584 92.5432 12.74 92.4152 12.868C92.2952 12.996 92.1472 13.06 91.9712 13.06ZM93.8274 13V12.388L97.3194 8.968C97.6394 8.656 97.8794 8.384 98.0394 8.152C98.1994 7.912 98.3074 7.688 98.3634 7.48C98.4194 7.272 98.4474 7.076 98.4474 6.892C98.4474 6.404 98.2794 6.02 97.9434 5.74C97.6154 5.46 97.1274 5.32 96.4794 5.32C95.9834 5.32 95.5434 5.396 95.1594 5.548C94.7834 5.7 94.4594 5.936 94.1874 6.256L93.5754 5.728C93.9034 5.344 94.3234 5.048 94.8354 4.84C95.3474 4.632 95.9194 4.528 96.5514 4.528C97.1194 4.528 97.6114 4.62 98.0274 4.804C98.4434 4.98 98.7634 5.24 98.9874 5.584C99.2194 5.928 99.3354 6.332 99.3354 6.796C99.3354 7.068 99.2954 7.336 99.2154 7.6C99.1434 7.864 99.0074 8.144 98.8074 8.44C98.6154 8.728 98.3314 9.056 97.9554 9.424L94.7514 12.568L94.5114 12.232H99.7194V13H93.8274ZM104.128 13.072C103.48 13.072 102.904 12.904 102.4 12.568C101.896 12.224 101.5 11.736 101.212 11.104C100.924 10.464 100.78 9.696 100.78 8.8C100.78 7.904 100.924 7.14 101.212 6.508C101.5 5.868 101.896 5.38 102.4 5.044C102.904 4.7 103.48 4.528 104.128 4.528C104.776 4.528 105.352 4.7 105.856 5.044C106.36 5.38 106.756 5.868 107.044 6.508C107.34 7.14 107.488 7.904 107.488 8.8C107.488 9.696 107.34 10.464 107.044 11.104C106.756 11.736 106.36 12.224 105.856 12.568C105.352 12.904 104.776 13.072 104.128 13.072ZM104.128 12.28C104.624 12.28 105.056 12.148 105.424 11.884C105.792 11.612 106.08 11.22 106.288 10.708C106.496 10.188 106.6 9.552 106.6 8.8C106.6 8.048 106.496 7.416 106.288 6.904C106.08 6.384 105.792 5.992 105.424 5.728C105.056 5.456 104.624 5.32 104.128 5.32C103.648 5.32 103.22 5.456 102.844 5.728C102.468 5.992 102.176 6.384 101.968 6.904C101.76 7.416 101.656 8.048 101.656 8.8C101.656 9.552 101.76 10.188 101.968 10.708C102.176 11.22 102.468 11.612 102.844 11.884C103.22 12.148 103.648 12.28 104.128 12.28ZM108.57 13V12.388L112.062 8.968C112.382 8.656 112.622 8.384 112.782 8.152C112.942 7.912 113.05 7.688 113.106 7.48C113.162 7.272 113.19 7.076 113.19 6.892C113.19 6.404 113.022 6.02 112.686 5.74C112.358 5.46 111.87 5.32 111.222 5.32C110.726 5.32 110.286 5.396 109.902 5.548C109.526 5.7 109.202 5.936 108.93 6.256L108.318 5.728C108.646 5.344 109.066 5.048 109.578 4.84C110.09 4.632 110.662 4.528 111.294 4.528C111.862 4.528 112.354 4.62 112.77 4.804C113.186 4.98 113.506 5.24 113.73 5.584C113.962 5.928 114.078 6.332 114.078 6.796C114.078 7.068 114.038 7.336 113.958 7.6C113.886 7.864 113.75 8.144 113.55 8.44C113.358 8.728 113.074 9.056 112.698 9.424L109.494 12.568L109.254 12.232H114.462V13H108.57ZM117.01 13V4.96L117.394 5.368H115.03V4.6H117.874V13H117.01Z" fill="black"/>
</svg>
