<svg width="53" height="17" viewBox="0 0 53 17" fill="none" xmlns="http://www.w3.org/2000/svg">
<g opacity="0.5">
<path d="M1.06946 6.5532H14.4374" stroke="#200E32" stroke-linecap="round" stroke-linejoin="round"/>
<path d="M11.0816 9.4823H11.0885" stroke="#200E32" stroke-linecap="round" stroke-linejoin="round"/>
<path d="M7.75347 9.4823H7.76042" stroke="#200E32" stroke-linecap="round" stroke-linejoin="round"/>
<path d="M4.41839 9.4823H4.42534" stroke="#200E32" stroke-linecap="round" stroke-linejoin="round"/>
<path d="M11.0816 12.3972H11.0885" stroke="#200E32" stroke-linecap="round" stroke-linejoin="round"/>
<path d="M7.75347 12.3972H7.76042" stroke="#200E32" stroke-linecap="round" stroke-linejoin="round"/>
<path d="M4.41839 12.3972H4.42534" stroke="#200E32" stroke-linecap="round" stroke-linejoin="round"/>
<path d="M10.7828 1V3.46809" stroke="#200E32" stroke-linecap="round" stroke-linejoin="round"/>
<path d="M4.72411 1V3.46809" stroke="#200E32" stroke-linecap="round" stroke-linejoin="round"/>
<path fill-rule="evenodd" clip-rule="evenodd" d="M10.9287 2.1844H4.57822C2.37571 2.1844 1 3.41135 1 5.66667V12.4539C1 14.7447 2.37571 16 4.57822 16H10.9218C13.1312 16 14.5 14.766 14.5 12.5106V5.66667C14.5069 3.41135 13.1382 2.1844 10.9287 2.1844Z" stroke="#200E32" stroke-linecap="round" stroke-linejoin="round"/>
</g>
<path opacity="0.5" d="M29.36 12.232V13H23.468V12.388L26.96 8.968C27.4 8.536 27.696 8.164 27.848 7.852C28.008 7.532 28.088 7.212 28.088 6.892C28.088 6.396 27.916 6.012 27.572 5.74C27.236 5.46 26.752 5.32 26.12 5.32C25.136 5.32 24.372 5.632 23.828 6.256L23.216 5.728C23.544 5.344 23.96 5.048 24.464 4.84C24.976 4.632 25.552 4.528 26.192 4.528C27.048 4.528 27.724 4.732 28.22 5.14C28.724 5.54 28.976 6.092 28.976 6.796C28.976 7.228 28.88 7.644 28.688 8.044C28.496 8.444 28.132 8.904 27.596 9.424L24.74 12.232H29.36ZM33.7454 13.072C33.0974 13.072 32.5174 12.9 32.0054 12.556C31.5014 12.212 31.1054 11.72 30.8174 11.08C30.5374 10.432 30.3974 9.672 30.3974 8.8C30.3974 7.928 30.5374 7.172 30.8174 6.532C31.1054 5.884 31.5014 5.388 32.0054 5.044C32.5174 4.7 33.0974 4.528 33.7454 4.528C34.3934 4.528 34.9694 4.7 35.4734 5.044C35.9854 5.388 36.3854 5.884 36.6734 6.532C36.9614 7.172 37.1054 7.928 37.1054 8.8C37.1054 9.672 36.9614 10.432 36.6734 11.08C36.3854 11.72 35.9854 12.212 35.4734 12.556C34.9694 12.9 34.3934 13.072 33.7454 13.072ZM33.7454 12.28C34.2334 12.28 34.6614 12.144 35.0294 11.872C35.4054 11.6 35.6974 11.204 35.9054 10.684C36.1134 10.164 36.2174 9.536 36.2174 8.8C36.2174 8.064 36.1134 7.436 35.9054 6.916C35.6974 6.396 35.4054 6 35.0294 5.728C34.6614 5.456 34.2334 5.32 33.7454 5.32C33.2574 5.32 32.8254 5.456 32.4494 5.728C32.0814 6 31.7934 6.396 31.5854 6.916C31.3774 7.436 31.2734 8.064 31.2734 8.8C31.2734 9.536 31.3774 10.164 31.5854 10.684C31.7934 11.204 32.0814 11.6 32.4494 11.872C32.8254 12.144 33.2574 12.28 33.7454 12.28ZM38.9908 7.948C38.8148 7.948 38.6628 7.884 38.5348 7.756C38.4148 7.628 38.3548 7.472 38.3548 7.288C38.3548 7.104 38.4148 6.952 38.5348 6.832C38.6628 6.704 38.8148 6.64 38.9908 6.64C39.1668 6.64 39.3188 6.704 39.4468 6.832C39.5748 6.952 39.6388 7.104 39.6388 7.288C39.6388 7.472 39.5748 7.628 39.4468 7.756C39.3188 7.884 39.1668 7.948 38.9908 7.948ZM38.9908 13.06C38.8148 13.06 38.6628 12.996 38.5348 12.868C38.4148 12.74 38.3548 12.584 38.3548 12.4C38.3548 12.216 38.4148 12.064 38.5348 11.944C38.6628 11.816 38.8148 11.752 38.9908 11.752C39.1668 11.752 39.3188 11.816 39.4468 11.944C39.5748 12.064 39.6388 12.216 39.6388 12.4C39.6388 12.584 39.5748 12.74 39.4468 12.868C39.3188 12.996 39.1668 13.06 38.9908 13.06ZM48.0257 10.792H46.3457V13H45.4817V10.792H40.7417V10.168L45.1937 4.6H46.1537L41.8577 10.024H45.5057V8.08H46.3457V10.024H48.0257V10.792ZM50.8426 4.6V13H49.9786V5.368H47.9986V4.6H50.8426Z" fill="black"/>
</svg>
